<svg width="420" height="24" viewBox="0 0 420 24" fill="none" xmlns="http://www.w3.org/2000/svg">
<g clip-path="url(#clip0_14044_45824)">
<path d="M0 0.5C30.5 0.5 74.4563 8.69034 94.2243 7.95594C118.934 7.03795 148.272 0.5 163.89 0.5C179.509 0.5 273.605 9.79193 333.515 6.73195C381.443 4.28397 397.948 0.5 420 0.5" stroke="#DEDCE4"/>
<g filter="url(#filter0_d_14044_45824)">
<path d="M20.6684 -0.198856C21.9292 -1.26668 24.1953 -1.26705 25.4572 -0.19997C26.4418 0.632455 27.3093 1.85473 27.0965 3.51067C26.8153 5.67007 25.3768 7.20869 24.2965 8.08047C23.6303 8.61846 22.4947 8.61846 21.828 8.07973C20.7499 7.20794 19.314 5.6697 19.0323 3.51067C18.8196 1.85547 19.6854 0.633569 20.6684 -0.198856Z" fill="#579FF6"/>
</g>
<g filter="url(#filter1_d_14044_45824)">
<path d="M379.221 9.05842C377.727 9.76354 375.538 9.17738 374.595 7.82006C373.86 6.76117 373.338 5.35602 373.972 3.81158C374.803 1.79852 376.59 0.684657 377.86 0.12218C378.642 -0.225052 379.739 0.0688474 380.244 0.761801C381.059 1.88291 382.048 3.74036 381.762 5.89873C381.539 7.5526 380.386 8.50876 379.221 9.05842Z" fill="#D359F4"/>
</g>
<g filter="url(#filter2_d_14044_45824)">
<path d="M159.823 1.14914C160.312 -0.429093 162.223 -1.64785 163.86 -1.42662C165.138 -1.25413 166.527 -0.689995 167.238 0.820621C168.162 2.7925 167.776 4.86326 167.334 6.17915C167.062 6.99097 166.104 7.60152 165.252 7.50578C163.874 7.3504 161.837 6.82542 160.438 5.15648C159.369 3.87529 159.442 2.37949 159.823 1.14914Z" fill="#00CBA8"/>
</g>
<g filter="url(#filter3_d_14044_45824)">
<path d="M308.443 3.84464C309.998 4.40261 311.132 6.36496 310.838 7.99133C310.61 9.2602 309.985 10.6226 308.445 11.2663C306.434 12.1025 304.382 11.626 303.087 11.1264C302.288 10.8184 301.72 9.83498 301.853 8.98817C302.069 7.61862 302.684 5.60604 304.413 4.28257C305.74 3.2707 307.231 3.40961 308.443 3.84464Z" fill="#FFA74E"/>
</g>
<g filter="url(#filter4_d_14044_45824)">
<path d="M235.378 9.45052C233.753 9.74489 231.79 8.61214 231.231 7.05708C230.794 5.84389 230.654 4.35162 231.666 3.02392C232.989 1.29439 235.005 0.681194 236.376 0.466353C237.222 0.333548 238.205 0.901318 238.513 1.70126C239.011 2.9953 239.486 5.04537 238.65 7.05599C238.007 8.59582 236.646 9.22108 235.378 9.45052Z" fill="#9276D7"/>
</g>
<g filter="url(#filter5_d_14044_45824)">
<path d="M91.6802 4.52799C93.306 4.23363 95.2687 5.36638 95.828 6.92144C96.2645 8.13462 96.4046 9.6269 95.3924 10.9546C94.0692 12.6841 92.0541 13.2973 90.6826 13.5122C89.8366 13.645 88.8532 13.0772 88.5452 12.2773C88.0474 10.9832 87.5731 8.93315 88.4086 6.92253C89.0519 5.3827 90.4128 4.75743 91.6802 4.52799Z" fill="#FC5266"/>
</g>
</g>
<defs>
<filter id="filter0_d_14044_45824" x="7" y="-11" width="32.1289" height="33.4844" filterUnits="userSpaceOnUse" color-interpolation-filters="sRGB">
<feFlood flood-opacity="0" result="BackgroundImageFix"/>
<feColorMatrix in="SourceAlpha" type="matrix" values="0 0 0 0 0 0 0 0 0 0 0 0 0 0 0 0 0 0 127 0" result="hardAlpha"/>
<feOffset dy="2"/>
<feGaussianBlur stdDeviation="6"/>
<feComposite in2="hardAlpha" operator="out"/>
<feColorMatrix type="matrix" values="0 0 0 0 0.3625 0 0 0 0 0.651179 0 0 0 0 1 0 0 0 0.6 0"/>
<feBlend mode="normal" in2="BackgroundImageFix" result="effect1_dropShadow_14044_45824"/>
<feBlend mode="normal" in="SourceGraphic" in2="effect1_dropShadow_14044_45824" result="shape"/>
</filter>
<filter id="filter1_d_14044_45824" x="361.688" y="-10.0234" width="32.125" height="33.3828" filterUnits="userSpaceOnUse" color-interpolation-filters="sRGB">
<feFlood flood-opacity="0" result="BackgroundImageFix"/>
<feColorMatrix in="SourceAlpha" type="matrix" values="0 0 0 0 0 0 0 0 0 0 0 0 0 0 0 0 0 0 127 0" result="hardAlpha"/>
<feOffset dy="2"/>
<feGaussianBlur stdDeviation="6"/>
<feComposite in2="hardAlpha" operator="out"/>
<feColorMatrix type="matrix" values="0 0 0 0 0.827451 0 0 0 0 0.34902 0 0 0 0 0.956863 0 0 0 0.6 0"/>
<feBlend mode="normal" in2="BackgroundImageFix" result="effect1_dropShadow_14044_45824"/>
<feBlend mode="normal" in="SourceGraphic" in2="effect1_dropShadow_14044_45824" result="shape"/>
</filter>
<filter id="filter2_d_14044_45824" x="147.566" y="-11.4531" width="32.2383" height="32.9688" filterUnits="userSpaceOnUse" color-interpolation-filters="sRGB">
<feFlood flood-opacity="0" result="BackgroundImageFix"/>
<feColorMatrix in="SourceAlpha" type="matrix" values="0 0 0 0 0 0 0 0 0 0 0 0 0 0 0 0 0 0 127 0" result="hardAlpha"/>
<feOffset dy="2"/>
<feGaussianBlur stdDeviation="6"/>
<feComposite in2="hardAlpha" operator="out"/>
<feColorMatrix type="matrix" values="0 0 0 0 0 0 0 0 0 0.796078 0 0 0 0 0.658824 0 0 0 0.6 0"/>
<feBlend mode="normal" in2="BackgroundImageFix" result="effect1_dropShadow_14044_45824"/>
<feBlend mode="normal" in="SourceGraphic" in2="effect1_dropShadow_14044_45824" result="shape"/>
</filter>
<filter id="filter3_d_14044_45824" x="289.836" y="-6.48438" width="33.0508" height="32.207" filterUnits="userSpaceOnUse" color-interpolation-filters="sRGB">
<feFlood flood-opacity="0" result="BackgroundImageFix"/>
<feColorMatrix in="SourceAlpha" type="matrix" values="0 0 0 0 0 0 0 0 0 0 0 0 0 0 0 0 0 0 127 0" result="hardAlpha"/>
<feOffset dy="2"/>
<feGaussianBlur stdDeviation="6"/>
<feComposite in2="hardAlpha" operator="out"/>
<feColorMatrix type="matrix" values="0 0 0 0 1 0 0 0 0 0.654902 0 0 0 0 0.305882 0 0 0 0.6 0"/>
<feBlend mode="normal" in2="BackgroundImageFix" result="effect1_dropShadow_14044_45824"/>
<feBlend mode="normal" in="SourceGraphic" in2="effect1_dropShadow_14044_45824" result="shape"/>
</filter>
<filter id="filter4_d_14044_45824" x="218.898" y="-9.55273" width="32.207" height="33.0508" filterUnits="userSpaceOnUse" color-interpolation-filters="sRGB">
<feFlood flood-opacity="0" result="BackgroundImageFix"/>
<feColorMatrix in="SourceAlpha" type="matrix" values="0 0 0 0 0 0 0 0 0 0 0 0 0 0 0 0 0 0 127 0" result="hardAlpha"/>
<feOffset dy="2"/>
<feGaussianBlur stdDeviation="6"/>
<feComposite in2="hardAlpha" operator="out"/>
<feColorMatrix type="matrix" values="0 0 0 0 0.572549 0 0 0 0 0.462745 0 0 0 0 0.843137 0 0 0 0.6 0"/>
<feBlend mode="normal" in2="BackgroundImageFix" result="effect1_dropShadow_14044_45824"/>
<feBlend mode="normal" in="SourceGraphic" in2="effect1_dropShadow_14044_45824" result="shape"/>
</filter>
<filter id="filter5_d_14044_45824" x="75.9531" y="-5.51953" width="32.207" height="33.0508" filterUnits="userSpaceOnUse" color-interpolation-filters="sRGB">
<feFlood flood-opacity="0" result="BackgroundImageFix"/>
<feColorMatrix in="SourceAlpha" type="matrix" values="0 0 0 0 0 0 0 0 0 0 0 0 0 0 0 0 0 0 127 0" result="hardAlpha"/>
<feOffset dy="2"/>
<feGaussianBlur stdDeviation="6"/>
<feComposite in2="hardAlpha" operator="out"/>
<feColorMatrix type="matrix" values="0 0 0 0 0.988235 0 0 0 0 0.321569 0 0 0 0 0.4 0 0 0 0.5 0"/>
<feBlend mode="normal" in2="BackgroundImageFix" result="effect1_dropShadow_14044_45824"/>
<feBlend mode="normal" in="SourceGraphic" in2="effect1_dropShadow_14044_45824" result="shape"/>
</filter>
<clipPath id="clip0_14044_45824">
<rect width="420" height="24" fill="white"/>
</clipPath>
</defs>
</svg>
